<?xml version="1.0" encoding="UTF-8"?>
<svg id="Layer_1" xmlns="http://www.w3.org/2000/svg" viewBox="0 0 80 80">
  <defs>
    <style>
      .cls-1 {
        fill: #37839e;
      }
    </style>
  </defs>
  <path class="cls-1" d="M55.68,43.56l-1.1-.79c-.31-.22-.63-.5-1-.81-1.81-1.56-4.85-4.17-12.22-4.17s-11.82,2.43-14.86,4.03c-1.59.84-2.73,1.44-3.74,1.44-.1,0-.2,0-.3-.02l-.61-.07v-17.78c-3.88-.57-6.84-3.94-6.84-7.93,0-4.42,3.6-8.02,8.02-8.02,1.21,0,2.39.27,3.46.79,2.54-4.25,7.11-6.86,12.09-6.86s9.65,2.66,12.17,6.99c1.14-.6,2.42-.92,3.73-.92,4.42,0,8.02,3.6,8.02,8.02,0,3.99-2.95,7.36-6.84,7.93v18.16ZM23.04,10.84c-3.66,0-6.63,2.98-6.63,6.63s2.72,6.39,6.19,6.62l.65.04v17.68c.65-.18,1.54-.65,2.61-1.21,3.17-1.67,7.95-4.19,15.51-4.19s10.94,2.64,12.93,4.34v-16.61l.65-.04c3.47-.23,6.19-3.13,6.19-6.62,0-3.66-2.98-6.63-6.63-6.63-1.29,0-2.54.37-3.61,1.07l-.64.42-.35-.68c-2.19-4.24-6.52-6.88-11.29-6.88s-9,2.58-11.21,6.73l-.34.64-.62-.37c-1.02-.61-2.18-.93-3.38-.93Z"/>
  <path class="cls-1" d="M15.15,80h-1.38c1.17-9.01,2.78-21.43.13-26.05-.65-.65-5.33-5.5-5.33-9.68s2.73-6.64,7.11-6.64c2.2,0,3.56,1.53,4.65,2.77.8.9,1.49,1.68,2.29,1.76.06,0,.1,0,.15,0,.66,0,1.73-.57,3.09-1.28,3.17-1.67,7.95-4.19,15.51-4.19s11.16,2.82,13.12,4.51c.34.29.64.55.9.74.31.22.53.32.7.32.49,0,1.09-.59,1.79-1.27,1.49-1.45,3.53-3.45,7.55-3.45,1.9,0,3.46.8,4.5,2.31,1.97,2.86,1.72,7.79.78,10.25-1.05,2.75-2.15,3.74-3.31,4.78-.26.24-.54.48-.81.75-1.8,1.76-1.23,15.92-.45,24.38h-1.38c-.35-3.77-1.93-22.63.86-25.37.3-.29.58-.55.86-.79,1.13-1.01,2.01-1.81,2.95-4.24.81-2.12,1.05-6.53-.62-8.96-.79-1.15-1.89-1.71-3.36-1.71-3.46,0-5.19,1.69-6.58,3.05-.92.89-1.71,1.67-2.76,1.67-.62,0-1.13-.31-1.51-.58-.31-.22-.63-.5-1-.81-1.81-1.56-4.85-4.17-12.22-4.17s-11.82,2.43-14.86,4.03c-1.59.84-2.73,1.44-3.74,1.44-.1,0-.2,0-.3-.02-1.33-.13-2.26-1.19-3.17-2.22-1.05-1.18-2.04-2.3-3.61-2.3-1.72,0-5.73.51-5.73,5.26,0,3.81,4.94,8.71,4.99,8.76l.06.06.05.08c2.72,4.6,1.6,15.27.09,26.83Z"/>
  <ellipse class="cls-1" cx="29.18" cy="57.8" rx="2.97" ry="3.58"/>
  <circle class="cls-1" cx="51.94" cy="59.29" r="3.04"/>
  <path class="cls-1" d="M38.95,61.02c-3.54,0-4.8,3.66-3.54,4.92s7.68,1.52,8.57,0-1.49-4.92-5.03-4.92Z"/>
</svg>