<?xml version="1.0" encoding="UTF-8"?>
<svg id="Layer_2" xmlns="http://www.w3.org/2000/svg" viewBox="0 0 302.66 371.69">
  <defs>
    <style>
      .cls-1 {
        fill: #37839e;
      }
    </style>
  </defs>
  <g id="Layer_1-2" data-name="Layer_1">
    <path class="cls-1" d="M89.53,371.69c-6.57-2.64-8.88-7.5-8.86-14.52.16-60.84.09-121.69.09-182.53,0-9.39-2.68-12.05-12.12-12.05-18.66,0-37.33.05-55.99-.02-9.24-.04-15.1-8.03-11.65-15.85.76-1.72,2.04-3.31,3.38-4.65C50.38,96.1,96.39,50.17,142.44,4.27c5.73-5.71,12.12-5.68,17.86.05,46.04,45.91,92.05,91.85,138.09,137.77,3.87,3.86,5.49,8.32,3.26,13.5-2.22,5.18-6.6,7.04-12.04,7.02-18.66-.04-37.33-.02-55.99-.01-9.3,0-11.93,2.6-11.94,11.79,0,60.6-.07,121.2.09,181.8.02,7.08-1.81,12.5-8.6,15.5h-123.64Z"/>
  </g>
</svg>